<?xml version="1.0" encoding="UTF-8" standalone="no"?>
<!-- Created with Inkscape (http://www.inkscape.org/) -->

<svg
   version="1.1"
   id="svg205"
   width="980"
   height="966"
   viewBox="0 0 980 966"
   sodipodi:docname="Account.svg"
   inkscape:version="1.2.2 (732a01da63, 2022-12-09)"
   xmlns:inkscape="http://www.inkscape.org/namespaces/inkscape"
   xmlns:sodipodi="http://sodipodi.sourceforge.net/DTD/sodipodi-0.dtd"
   xmlns="http://www.w3.org/2000/svg"
   xmlns:svg="http://www.w3.org/2000/svg">
  <defs
     id="defs209" />
  <sodipodi:namedview
     id="namedview207"
     pagecolor="#ffffff"
     bordercolor="#000000"
     borderopacity="0.25"
     inkscape:showpageshadow="2"
     inkscape:pageopacity="0.0"
     inkscape:pagecheckerboard="0"
     inkscape:deskcolor="#d1d1d1"
     showgrid="false"
     inkscape:zoom="1.8861284"
     inkscape:cx="393.92865"
     inkscape:cy="483"
     inkscape:window-width="3840"
     inkscape:window-height="2054"
     inkscape:window-x="2869"
     inkscape:window-y="-11"
     inkscape:window-maximized="1"
     inkscape:current-layer="g211" />
  <g
     inkscape:groupmode="layer"
     inkscape:label="Image"
     id="g211">
    <path
       style="fill:#000000"
       d="M 441.96981,964.33621 C 291.71538,958.49619 153.25164,927.86576 73.969815,882.92863 35.903975,861.35282 12.937755,838.67079 3.3367353,813.1696 0.39334533,805.3517 0.07635533,803.46848 0.11004533,794 c 0.0416,-11.70121 1.88912997,-21.68846 8.41680997,-45.5 10.3903097,-37.90149 20.1378497,-65.25143 27.4428597,-77 12.14552,-19.53348 44.75955,-43.78484 95.587935,-71.0779 39.05604,-20.97173 74.72275,-36.8332 135.91217,-60.44202 l 35.49999,-13.69702 3.5,2.81227 c 1.925,1.54674 8.45,7.35666 14.5,12.91093 33.31093,30.58148 76.4465,55.51867 109.8578,63.51013 30.96604,7.4066 79.94556,8.54972 107.64221,2.51223 26.51317,-5.7795 55.37964,-18.46066 81.7196,-35.89976 15.30645,-10.13405 24.13601,-17.23164 41.15434,-33.08169 l 13.92696,-12.97088 23.84955,8.86192 c 29.24775,10.86777 44.08994,16.78341 64.84955,25.84701 61.88133,27.01726 126.44943,61.60646 150.37121,80.55403 26.40558,20.91489 34.62872,34.55774 49.22052,81.66075 13.17577,42.53197 17.26215,63.50497 15.17005,77.85888 -10.37228,71.16414 -153.91135,136.08291 -347.26178,157.05693 -23.50067,2.54928 -53.54027,4.80263 -81,6.07603 -18.87883,0.87548 -89.10107,1.09836 -108.50001,0.34437 z m 26.63448,-408.31254 c -20.5081,-1.84114 -34.5541,-5.95288 -52.7199,-15.4329 C 393.26598,528.78712 375.06514,515.44086 355.15541,496.0596 298.06025,440.47997 259.99149,358.6084 252.4174,275.10889 250.94108,258.83336 251.69233,226.88651 253.90146,212 262.69926,152.71471 296.4375,92.777317 341.96981,55.542902 358.01497,42.421843 369.68876,34.833574 387.27344,26.094349 412.31193,13.650735 440.19385,5.1792024 466.79358,1.9332664 479.15171,0.42521838 508.46294,1.2402334 521.46982,3.4535704 585.35983,14.325517 643.72162,49.853301 678.42477,98.999997 705.13928,136.83318 719.39932,171.97273 725.09312,214 c 2.41247,17.80707 2.41917,55.75012 0.0132,74.5 -12.02545,93.71298 -61.35327,182.54869 -128.6365,231.66461 -26.55678,19.38611 -50.557,30.62928 -73.32838,34.35149 -11.12062,1.81777 -41.67414,2.66237 -54.53715,1.50757 z"
       id="path215" />
  </g>
</svg>
