<?xml version="1.0" encoding="UTF-8" standalone="no"?>
<!-- Created with Inkscape (http://www.inkscape.org/) -->

<svg
   version="1.1"
   id="svg2"
   width="2616"
   height="2144"
   viewBox="0 0 2616 2144"
   sodipodi:docname="Baskets.svg"
   inkscape:version="1.2.2 (732a01da63, 2022-12-09)"
   xmlns:inkscape="http://www.inkscape.org/namespaces/inkscape"
   xmlns:sodipodi="http://sodipodi.sourceforge.net/DTD/sodipodi-0.dtd"
   xmlns="http://www.w3.org/2000/svg"
   xmlns:svg="http://www.w3.org/2000/svg">
  <defs
     id="defs6" />
  <sodipodi:namedview
     id="namedview4"
     pagecolor="#ffffff"
     bordercolor="#000000"
     borderopacity="0.25"
     inkscape:showpageshadow="2"
     inkscape:pageopacity="0.0"
     inkscape:pagecheckerboard="0"
     inkscape:deskcolor="#d1d1d1"
     showgrid="false"
     inkscape:zoom="0.67742413"
     inkscape:cx="1327.0859"
     inkscape:cy="1151.4205"
     inkscape:window-width="3840"
     inkscape:window-height="2054"
     inkscape:window-x="2869"
     inkscape:window-y="-11"
     inkscape:window-maximized="1"
     inkscape:current-layer="g8" />
  <g
     inkscape:groupmode="layer"
     inkscape:label="Image"
     id="g8">
    <path
       style="fill:#000000;stroke-width:0.32"
       d="m 997.70503,2146.8889 c -14.4738,-0.4805 -21.7489,-1.3772 -37.8574,-4.6661 -11.2144,-2.2896 -11.5034,-2.3671 -13.1933,-3.5383 -0.9511,-0.6591 -1.7992,-0.8901 -4.1257,-1.1234 -3.0131,-0.3022 -4.3311,-0.73 -5.721,-1.8567 -0.5353,-0.434 -1.6274,-0.7527 -3.3008,-0.9636 -1.8754,-0.2363 -3.4761,-0.7466 -6.4,-2.0404 -2.1446,-0.9489 -5.8432,-2.5183 -8.2192,-3.4875 -27.1897,-11.091 -52.2426,-26.8764 -74.1842,-46.7423 -5.069,-4.5895 -15.7831,-15.4549 -20.2493,-20.5353 -31.399,-35.7172 -50.8891,-76.6772 -59.7643,-125.6 -2.4295,-13.3924 -2.7503,-18.383 -2.7561,-42.88 -0.01,-25.2913 0.2581,-28.8899 3.2294,-43.9833 5.2919,-26.8812 11.658,-46.201 22.3597,-67.8567 23.0468,-46.637 59.3553,-84.8463 104.2837,-109.743 20.799,-11.5256 42.8779,-19.9439 68.3611,-26.0649 7.3849,-1.7738 11.5213,-2.5043 17.44,-3.0799 2.816,-0.2738 6.128,-0.7182 7.36,-0.9876 3.5057,-0.7664 16.54487,-1.055 33.43997,-0.7402 32.6033,0.6076 36.435,1.0332 60.48,6.7179 14.3729,3.3981 14.6404,3.472 15.6616,4.3313 1.1507,0.9683 2.3316,1.406 3.7992,1.4082 1.7927,0 3.6441,0.6082 4.5918,1.5017 0.5135,0.4841 1.7862,1.0534 3.2,1.4315 7.0374,1.882 30.09,12.7613 40.9553,19.3281 7.7432,4.6798 19.8087,13.2412 28.7521,20.4016 38.5587,30.8714 66.1263,70.2437 81.8196,116.8553 5.1681,15.3499 9.8452,35.122 10.6434,44.9937 1.3545,16.7533 1.1601,62.8579 -0.3191,75.6463 -0.4473,3.8674 -2.5714,14.3641 -4.3386,21.44 -9.8554,39.4626 -27.6786,74.0607 -54.1524,105.12 -4.7567,5.5806 -19.3949,20.1957 -25.2498,25.21 -16.0165,13.7168 -31.6812,24.5563 -48.5963,33.6272 -6.6188,3.5494 -12.8583,6.4337 -21.8868,10.1176 -3.784,1.544 -8.1273,3.3667 -9.6517,4.0505 -1.8561,0.8325 -3.5768,1.3453 -5.2084,1.5522 -2.4952,0.3163 -3.3756,0.6354 -4.4086,1.5978 -0.7729,0.7201 -2.4382,1.1856 -13.6913,3.8274 -18.1708,4.2658 -26.5626,5.5622 -41.44,6.4018 -7.9187,0.447 -32.3094,0.6396 -41.66257,0.3291 z m 26.53637,-103.6728 c 15.2365,-0.4832 18.1855,-0.8962 29.5711,-4.1409 13.8307,-3.9416 21.1989,-6.7971 30.537,-11.8343 25.1113,-13.5459 45.5497,-33.189 60.4663,-58.1138 2.8298,-4.7285 8.0483,-15.3259 10.0809,-20.4718 4.1339,-10.4661 7.9116,-24.774 9.1668,-34.72 0.5945,-4.7104 0.5953,-34.6408 0,-39.36 -0.9033,-7.1732 -3.4024,-17.9877 -6.015,-26.0292 -12.2701,-37.7669 -41.1827,-71.1089 -76.7619,-88.5221 -6.3129,-3.0896 -12.394,-5.6983 -14.9064,-6.3945 -1.1794,-0.3268 -3.42,-1.1016 -4.979,-1.7217 -3.3703,-1.3405 -17.1548,-4.8421 -20.9201,-5.3142 -8.2276,-1.0317 -35.1206,-1.2149 -46.55447,-0.3172 -8.1985,0.6437 -23.7271,5.0394 -34.72,9.8284 -2.024,0.8818 -6.0105,2.6139 -8.859,3.8492 -4.9096,2.1291 -9.3281,4.6937 -17.381,10.0883 -20.3733,13.6482 -39.7061,35.8286 -51.5065,59.093 -4.7371,9.3393 -6.3415,13.7309 -10.2411,28.0326 -2.4526,8.9949 -3.0468,12.1086 -3.5049,18.3674 -0.8915,12.1803 -0.6618,34.0846 0.4431,42.24 0.4464,3.2954 2.9431,13.4296 5.1468,20.8914 2.5969,8.7933 8.876,23.1189 13.4425,30.669 9.1081,15.0587 24.0387,31.8731 38.8601,43.7629 8.3704,6.7147 13.9683,10.1759 25.44,15.7295 8.4227,4.0775 11.9359,5.5918 14.08,6.0688 0.88,0.1958 2.6956,0.8503 4.0345,1.4546 1.4933,0.6738 6.071,2.0187 11.84,3.4785 11.6435,2.9463 12.6074,3.0551 32.28547,3.6447 0.792,0.024 5.7213,-0.093 10.9539,-0.2586 z m 1011.2862,103.6776 c -21.1072,-0.6145 -35.3252,-2.9124 -57.5262,-9.2972 -23.1641,-6.6619 -47.8168,-18.2939 -70.1538,-33.101 -12.9854,-8.608 -20.1653,-14.7407 -36.2024,-30.9224 -19.3435,-19.5179 -27.4994,-29.4531 -36.4795,-44.4378 -8.2107,-13.701 -16.6697,-31.0779 -22.0303,-45.2557 -2.6594,-7.0337 -8.7402,-26.0865 -10.1186,-31.7043 -0.9053,-3.6898 -5.0124,-28.3034 -5.4328,-32.5589 -0.8496,-8.598 -0.8481,-42.7267 0,-50.9611 0.4021,-3.8948 3.7493,-24.3281 4.9933,-30.4823 0.8632,-4.2705 3.8142,-14.2774 6.8175,-23.1177 16.8151,-49.4972 41.2205,-84.8521 81.6507,-118.2833 11.5749,-9.5712 18.9865,-15.097 22.2485,-16.5876 1.2367,-0.5652 3.6847,-1.9348 5.44,-3.0436 6.8039,-4.298 28.105,-15.1912 37.4315,-19.1421 4.4406,-1.8812 17.569,-6.3625 24.96,-8.5199 7.9175,-2.3112 19.9986,-4.8666 29.6,-6.2611 3.784,-0.5496 8.176,-1.2981 9.76,-1.6633 4.5806,-1.0563 8.4655,-1.2461 21.6,-1.0552 28.1401,0.4088 42.8585,1.0382 49.12,2.1006 13.9508,2.3669 39.1598,8.79 49.1015,12.5107 18.7001,6.9986 43.5208,20.4321 61.2985,33.176 18.9585,13.5903 37.7389,32.1865 52.8877,52.3688 23.5409,31.3628 39.6788,67.3469 47.3933,105.6769 3.0885,15.3455 3.378,19.4529 3.3779,47.9231 -1e-4,28.117 -0.321,32.6747 -3.356,47.6673 -9.1902,45.3988 -27.6757,83.388 -57.2301,117.6127 -4.4324,5.1328 -19.2165,20.097 -25.0557,25.3609 -18.8579,17 -35.4611,27.8261 -61.3771,40.021 -4.664,2.1946 -9.8178,4.6439 -11.4528,5.4427 -1.9554,0.9555 -3.598,1.5232 -4.8,1.6592 -2.5077,0.2836 -3.6997,0.6905 -4.6773,1.5965 -0.8401,0.7785 -1.4064,0.9322 -4.7532,1.2897 -1.2336,0.1318 -2.1334,0.438 -2.72,0.9259 -1.4032,1.1668 -2.0715,1.4157 -4.666,1.7378 -1.8607,0.231 -2.7991,0.5368 -3.9138,1.275 -1.6777,1.1114 -2.6254,1.3477 -14.2169,3.5459 -14.6856,2.7849 -20.7757,3.6052 -30.88,4.1592 -8.3947,0.4603 -30.2894,0.6459 -40.64,0.3446 z m 32.8,-104.0156 c 6.6449,-0.4426 8.6113,-0.7719 16.32,-2.733 18.7267,-4.7642 33.8248,-11.2172 47.7975,-20.4289 27.3764,-18.0484 50.294,-47.5231 60.3528,-77.6209 1.4881,-4.4528 5.6877,-19.9816 6.0578,-22.4 1.4837,-9.6954 1.4815,-40.6999 0,-50.72 -0.4526,-3.0536 -4.3975,-17.5762 -6.2151,-22.88 -9.0754,-26.4826 -26.1103,-50.5196 -48.6518,-68.6498 -5.9095,-4.753 -14.6007,-10.4698 -23.3137,-15.335 -11.111,-6.2043 -19.373,-9.3312 -35.5439,-13.4526 -9.5381,-2.4309 -11.432,-2.6321 -27.52,-2.9235 -10.7455,-0.1947 -25.3576,0.2005 -30.8522,0.8342 -1.4807,0.1708 -5.5127,1.1033 -8.96,2.0723 -4.9713,1.3972 -9.9752,2.3835 -12.2375,2.4118 -0.1154,0 -0.8069,0.5015 -1.5367,1.1112 -0.7394,0.6178 -1.8509,1.1963 -2.5103,1.3066 -6.6766,1.1171 -28.7329,12.9935 -39.4233,21.2279 -21.2107,16.3377 -38.402,37.8427 -47.6103,59.5569 -2.7814,6.5588 -6.7319,17.2642 -7.3805,20 -1.3556,5.7183 -2.8875,13.1723 -3.2225,15.68 -1.2936,9.684 -1.3068,38.316 -0.022,48.16 0.4768,3.6536 3.1388,16.1584 4.0412,18.9833 0.8261,2.5862 4.3874,11.3706 7.2231,17.8167 12.5652,28.5636 34.4056,52.9023 61.3713,68.3913 6.6899,3.8427 19.653,10.0174 25.92,12.3466 2.5069,0.9317 18.0017,5.3717 22.081,6.3272 6.0135,1.4087 29.1846,1.8937 43.839,0.9177 z m -773.6,-458.2489 c -196.4044,-0.2007 -270.4107,-0.4926 -283.68,-1.1186 -5.6023,-0.2644 -18.42227,-2.3978 -30.74517,-5.1165 -7.4599,-1.6458 -30.9569,-9.5227 -39.4948,-13.2398 -20.0285,-8.7197 -36.8684,-18.4036 -53.854,-30.969 -33.4203,-24.7231 -63.2857,-58.1811 -86.3552,-96.7431 -9.8026,-16.3854 -19.2837,-35.2145 -28.3527,-56.3069 -9.1762,-21.3415 -14.195,-35.605 -20.9995,-59.68 -4.5161,-15.9782 -5.4352,-19.4879 -7.5761,-28.9304 -3.1612,-13.9416 -15.002,-58.2509 -22.9256,-85.7896 -0.8862,-3.08 -2.0414,-7.112 -2.5671,-8.96 -0.5257,-1.848 -2.9743,-10.416 -5.4415,-19.04 -2.4672,-8.624 -5.0288,-17.624 -5.6925,-20 -0.6637,-2.376 -1.9369,-6.84 -2.8294,-9.92 -2.4156,-8.3361 -14.2941,-49.8943 -16.0521,-56.16 -3.5735,-12.7366 -7.4194,-26.0042 -16.0009,-55.2 -2.6123,-8.888 -6.9305,-23.792 -9.5958,-33.12 -2.6653,-9.32801 -7.3435,-25.38401 -10.3962,-35.68003 -5.9745,-20.15094 -6.9858,-23.63443 -12.1343,-41.79712 -1.8517,-6.53238 -5.8809,-20.28438 -8.9537,-30.56 -3.0728,-10.27558 -6.7602,-22.78688 -8.1942,-27.80288 -1.434,-5.016 -4.6764,-16.104 -7.2052,-24.64 -2.5289,-8.536 -5.4111,-18.4 -6.4048,-21.92 -0.9938,-3.52 -4.2539,-14.608 -7.2447,-24.64 -2.9907,-10.032 -6.5158,-21.984 -7.8335,-26.56 -1.3177,-4.576 -4.3195,-14.8 -6.6708,-22.72 -2.3512,-7.92 -4.7319,-16.056 -5.2904,-18.08 -0.5585,-2.024 -3.314,-11.384 -6.1233,-20.8 -2.8093,-9.416 -5.9035,-19.928 -6.8759,-23.36 -0.9725,-3.432 -4.4067,-15.096 -7.6315,-25.92 -3.2248,-10.824 -6.5331,-22.056 -7.3517,-24.96 -0.8186,-2.904 -2.6232,-9.024 -4.0101,-13.6 -3.8204,-12.60493 -14.4745,-48.58144 -16.1575,-54.56 -0.8174,-2.904 -3.7897,-12.984 -6.6051,-22.4 -2.8154,-9.416 -6.1985,-20.864 -7.5179,-25.44 -1.3194,-4.576 -4.4948,-15.376 -7.0565,-24 -2.5616,-8.624 -5.9122,-20 -7.4457,-25.28 -1.5335,-5.28 -6.3307,-21.48 -10.6605,-36 -4.3297,-14.52 -8.8282,-29.712 -9.9966,-33.76 -1.1684,-4.048 -4.1941,-14.344 -6.7236,-22.88 -2.5296,-8.536 -5.0964,-17.32 -5.7041,-19.52 -0.6077,-2.2 -3.3619,-11.56 -6.1204,-20.8 -2.7585,-9.24 -5.798,-19.57164 -6.7545,-22.95921 -0.9564,-3.38756 -3.8153,-13.10756 -6.3532,-21.6 -3.6454,-12.19823 -20.4957,-70.90867 -26.5237,-92.41459 -1.9611,-6.99646 -5.5458,-14.08964 -12.2027,-24.1462 -6.0553,-9.14773 -11.1407,-15.25987 -19.5842,-23.53823 -5.3707,-5.26577 -9.4984,-8.78683 -15.0843,-12.86768 -14.1087,-10.30721 -33.5389,-19.3574 -48.8668,-22.7612 l -5.12,-1.13698 -15.04,-0.32411 c -20.4684,-0.44111 -68.5481,-0.90865 -131.84,-1.28204 -106.886197,-0.63059 -124.845497,-0.94841 -136.479997,-2.41529 -4.8227,-0.60804 -6.9452,-1.17729 -10.2396,-2.74617 -4.233,-2.01591 -7.6992,-4.50811 -11.8909,-8.549388 -8.9868,-8.66428 -15.6294998,-19.1118 -15.6294998,-24.58159 0,-0.62078 -0.3068,-1.39283 -0.7742,-1.94835 -1.2928,-1.53634 -1.5908,-4.139 -1.586,-13.848974 0,-9.424118 0.312,-12.441645 1.3828,-13.581456 0.3871,-0.412109 0.8254,-1.632419 1.103,-3.071181 0.5426,-2.812614 1.6919,-5.470941 4.3934,-10.161499 C 15.322733,22.032078 19.522133,17.893138 30.142033,12.047709 c 3.9164,-2.1556953 7.3821,-3.5610433 9.5363,-3.8669613 1.2407,-0.176201 1.8219,-0.471063 2.6417,-1.340229 1.3849,-1.46841 2.2922,-1.588825 15.7676,-2.092483 15.3882,-0.575151 259.314497,-0.56851 281.919997,0.0077 16.4519,0.419338 18.1911,0.551861 21.12,1.609333 2.2338,0.806498 7.5561,1.481042 18.08,2.291425 11.432,0.880312 15.8852,1.3830643 28.48,3.2153013 11.8013,1.716804 12.6645,1.895515 14.9645,3.09811 1.0853,0.567499 2.5376,0.926388 4.9373,1.220138 2.5303,0.309724 3.6119,0.586844 4.229,1.083541 1.3073,1.052181 2.231,1.338334 5.2504,1.626545 1.6529,0.157774 3.1105,0.476647 3.52,0.770018 0.3843,0.2754 1.012,0.728099 1.3947,1.005998 0.3828,0.277899 1.6068,0.696097 2.72,0.929328 5.1969,1.088788 25.2329,11.37867 34.8142,17.879502 10.9732,7.445226 22.8259,19.184119 31.2628,30.962571 7.6309,10.65333 13.831,22.30961 17.561,33.014974 0.5993,1.71997 2.2561,7.40797 3.6819,12.64 1.4258,5.23203 4.0824,14.84078 5.9037,21.35278 1.8211,6.512 5.0615,18.104 7.2008,25.76 2.1393,7.656 4.877,17.376 6.0838,21.6 1.2068,4.224 4.0727,14.54916 6.3686,22.94479 2.296,8.39563 6.5429,23.58763 9.4376,33.76 4.92,17.28951 12.7431,45.3009 15.3983,55.13521 0.6415,2.376 3.1841,11.304 5.6502,19.84 2.4661,8.536 5.844,20.488 7.5063,26.56 2.7484,10.03891 8.301,29.81475 14.2409,50.72 1.2502,4.4 3.817,13.616 5.704,20.48 4.0535,14.74461 10.4321,37.46282 13.2974,47.36 1.1209,3.872 5.2863,18.8225 9.2564,33.2233 3.9701,14.4008 8.1625,29.3768 9.3166,33.28 1.154,3.9032 5.1914,18.3287 8.9721,32.0567 3.7807,13.728 7.8862,28.40746 9.1234,32.62099 1.2373,4.21357 4.7548,16.81357 7.8168,28 3.0621,11.18647 6.2237,22.57101 7.0259,25.29901 0.8022,2.728 3.542,12.52 6.0883,21.76 2.5464,9.24 8.3072,29.976 12.8018,46.08 10.1318,36.30141 19.743,70.89658 21.8699,78.72 0.8852,3.256 2.1915,7.864 2.903,10.24 0.7115,2.376 4.0245,14.256 7.3622,26.4 3.3377,12.144 7.1445,25.824 8.4595,30.4 1.315,4.576 4.4817,15.88 7.0371,25.12 2.5554,9.24 6.5332,23.568 8.8396,31.84 5.4421,19.51856 11.3863,41.07158 18.3905,66.68112 3.0989,11.3307 8.0868,29.47468 11.0842,40.32008 2.9974,10.8453 6.4573,23.3908 7.6886,27.8788 1.2314,4.488 4.095,14.856 6.3636,23.04 2.2687,8.184 5.0562,18.48 6.1947,22.88 1.1385,4.4 6.3927,24.2078 11.676,44.0173 5.2833,19.8095 10.4724,39.4655 11.5312,43.68 1.9378,7.7128 2.8882,10.8185 4.1967,13.7144 l 0.7102,1.5718 534.28217,-0.2079 c 501.2895,-0.1952 665.5553,-0.4694 695.7221,-1.1614 12.2525,-0.281 12.7791,-0.3193 17.1781,-1.2484 17.731,-3.745 27.394,-8.3234 35.646,-16.8894 3.3938,-3.523 5.7747,-6.6184 9.9959,-12.9962 19.458,-29.3986 36.9333,-62.5927 65.5756,-124.5602 10.8486,-23.4708 21.8118,-47.50558 29.0818,-63.75648 3.3258,-7.434 7.8636,-17.44202 10.0842,-22.23997 2.2206,-4.79795 4.8644,-10.66755 5.8752,-13.04355 1.0108,-2.376 3.8885,-8.784 6.395,-14.24 4.6435,-10.108 8.1525,-17.92006 24.5789,-54.72 5.1065,-11.44 12.481,-27.928 16.3879,-36.64 3.9069,-8.712 7.7217,-17.352 8.4773,-19.2 0.7557,-1.848 3.3217,-7.608 5.7023,-12.8 2.3806,-5.192 4.6832,-10.376 5.117,-11.52 0.4338,-1.144 2.0475,-4.816 3.586,-8.16 4.6262,-10.05482 5.9296,-12.98966 7.0349,-15.84 0.5801,-1.496 2.5264,-5.96 4.3251,-9.92 3.8849,-8.55254 34.0379,-76.3769 51.4285,-115.68 6.7752,-15.312 14.8773,-33.6 18.0048,-40.64 16.1287,-36.30656 19.5255,-43.99133 19.5255,-44.17366 0,-0.29469 1.5771,-3.84119 5.6859,-12.78634 2.0211,-4.4 4.2297,-9.39469 4.9081,-11.0993 0.6784,-1.7046 3.485,-8.0406 6.2369,-14.08 5.3433,-11.72656 11.4188,-25.24864 24.1275,-53.7007 4.3631,-9.768 10.0478,-22.368 12.6327,-28 9.9486,-21.67622 11.5931,-25.24528 15.8724,-34.44822 7.1027,-15.27492 11.9257,-26.29434 13.9848,-31.95178 7.4231,-20.39568 12.0203,-38.5033 13.6488,-53.76 2.3076,-21.61988 1.2213,-32.0564 -4.0557,-38.96507 -1.7678,-2.31445 -4.4806,-4.26886 -9.2014,-6.62896 l -4,-1.99976 -628.64,-0.21868 C 1038.0269,272.87734 815.06573,272.50854 790.50703,271.39589 l -6.3115,-0.28594 -6.8139,-3.36041 c -3.7477,-1.84822 -7.9191,-4.12852 -9.2698,-5.06732 -9.1893,-6.38699 -15.7175,-14.8452 -20.0908,-26.03047 -3.0805,-7.87893 -3.7636,-13.85345 -2.8739,-25.13249 0.5984,-7.58442 1.4634,-10.54665 5.2754,-18.06396 4.9502,-9.76192 10.9091,-16.65541 19.2803,-22.30425 2.8643,-1.93281 9.0443,-4.94285 13.0248,-6.34387 l 2.88,-1.01368 41.28,-0.30365 c 67.7382,-0.49827 1140.93517,-0.719 1385.59997,-0.28499 117.216,0.20793 228.384,0.49733 247.04,0.64311 l 33.92,0.26505 5.28,1.0011 c 20.2536,3.84015 28.0145,6.14329 40.96,12.15536 21.562,10.01368 36.755,22.5377 49.9077,41.14021 3.5055,4.95812 7.0006,10.63027 8.9751,14.56561 2.2295,4.44384 7.4046,17.34792 8.7894,21.91638 1.6603,5.47745 4.5868,19.06491 4.9542,23.00122 0.6911,7.40606 1.0521,21.69286 0.8583,33.9624 -0.2829,17.90064 -1.1788,27.24288 -4.0508,42.24 -0.7078,3.696 -1.7139,9.11715 -2.2358,12.04704 -1.044,5.86115 -1.2643,6.61571 -2.4242,8.30198 -0.5751,0.83616 -0.8698,1.84615 -1.0823,3.70906 -0.4176,3.66131 -1.2821,6.82106 -4.4932,16.42192 -1.56,4.664 -3.5794,10.784 -4.4877,13.6 -0.9083,2.816 -2.1642,6.19923 -2.7908,7.51834 -0.6266,1.31907 -1.4038,3.45689 -1.7271,4.75068 -0.7857,3.1441 -4.1092,10.78551 -14.3734,33.04807 -2.141,4.64361 -5.8013,12.76374 -8.1341,18.04473 -2.3328,5.28103 -6.9843,15.64903 -10.3367,23.04 -3.3523,7.39101 -6.4507,14.37418 -6.8852,15.51818 -0.4345,1.144 -5.1434,11.8 -10.4642,23.68 -18.1905,40.6151 -66.3588,149.20237 -71.6942,161.6223 -1.5552,3.62029 -4.5093,10.24429 -6.5645,14.72 -2.0553,4.47575 -4.2067,9.3617 -4.781,10.8577 -0.5742,1.496 -3.2365,7.544 -5.9162,13.44 -6.7269,14.80134 -20.9954,46.76336 -57.9271,129.76 -36.388,81.77472 -32.315,72.67539 -54.6445,122.08002 -16.6271,36.78798 -24.2294,53.50358 -27.4334,60.31998 -0.8273,1.76 -2.1542,4.784 -2.9488,6.72 -0.7945,1.936 -4.8675,10.864 -9.0512,19.84 -4.1836,8.976 -10.1266,21.792 -13.2067,28.48 -19.8686,43.142 -34.2267,71.1525 -52.326,102.08 -21.7448,37.1568 -36.8646,56.1258 -56.5456,70.9409 -21.4031,16.1115 -48.1852,26.3121 -82.08,31.262 -15.4211,2.252 -24.8842,2.9079 -51.36,3.5594 -39.0934,0.9621 -77.2431,1.0387 -623.36,1.251 -306.064,0.119 -556.73197,0.3331 -557.03997,0.4758 -0.8277,0.3834 -0.7061,0.9741 0.8585,4.1718 0.7801,1.5945 2.133,4.9871 3.0063,7.5391 7.0308,20.5441 20.4917,48.1567 31.8025,65.237 1.5891,2.3996 3.2121,5.083 3.6067,5.963 1.3232,2.9508 7.2406,10.6109 16.5627,21.44 21.6325,25.1298 41.9548,40.1104 69.0094,50.8704 10.3376,4.1115 16.01437,5.5805 29.02967,7.5125 9.9138,1.4716 14.3446,1.8974 23.4842,2.257 22.4904,0.8849 81.2972,1.0276 527.84,1.2809 451.3334,0.2561 490.3975,0.3557 506.3848,1.2907 6.5779,0.3847 7.8395,0.6903 12.4858,3.0238 14.869,7.4676 26.2495,22.3814 29.8243,39.0837 0.6522,3.0468 0.7436,4.3392 0.7334,10.361 -0.01,5.92 -0.113,7.3488 -0.7373,10.24 -2.4958,11.5579 -7.8554,21.3537 -15.9458,29.1442 -4.9432,4.76 -8.8611,7.3334 -17.3254,11.3797 l -6.2674,2.9961 -282.0962,-0.062 c -155.1529,-0.034 -380.3042,-0.1619 -500.3362,-0.2845 z"
       id="path170" />
  </g>
</svg>
